<?xml version="1.0" encoding="utf-8"?>
<!-- Generator: Adobe Illustrator 22.1.0, SVG Export Plug-In . SVG Version: 6.00 Build 0)  -->
<svg version="1.1" id="Layer_1" xmlns="http://www.w3.org/2000/svg" xmlns:xlink="http://www.w3.org/1999/xlink" x="0px" y="0px"
	 viewBox="0 0 24 24" style="enable-background:new 0 0 24 24;" xml:space="preserve">
<title>icon/add on</title>
<desc>Created with Sketch.</desc>
<g id="icon_x2F_add-on">
	<path id="Fill-3" d="M12,20c-4.4,0-8-3.6-8-8s3.6-8,8-8s8,3.6,8,8C20,16.4,16.4,20,12,20z M12,5.3c-3.7,0-6.7,3-6.7,6.7
		c0,3.7,3,6.7,6.7,6.7c3.7,0,6.7-3,6.7-6.7S15.7,5.3,12,5.3z"/>
	<path id="Combined-Shape" d="M12.4,11.6h3.4v0.8h-3.4v3.4h-0.8v-3.4H8.2v-0.8h3.4V8.2h0.8V11.6z"/>
</g>
</svg>
