<?xml version="1.0" encoding="utf-8"?>
<!-- Generator: Adobe Illustrator 22.1.0, SVG Export Plug-In . SVG Version: 6.00 Build 0)  -->
<svg version="1.1" id="Layer_1" xmlns="http://www.w3.org/2000/svg" xmlns:xlink="http://www.w3.org/1999/xlink" x="0px" y="0px"
	 viewBox="0 0 24 24" style="enable-background:new 0 0 24 24;" xml:space="preserve">
<title>icon/calendar</title>
<desc>Created with Sketch.</desc>
<path id="Shape" d="M8.4,5.6c-0.6,0-1.1,0.5-1.1,1.1s0.5,1.1,1.1,1.1s1.1-0.5,1.1-1.1S9,5.6,8.4,5.6z M8.4,7.1C8.2,7.1,8,6.9,8,6.7
	s0.2-0.4,0.4-0.4s0.4,0.2,0.4,0.4C8.8,6.9,8.6,7.1,8.4,7.1z M18.8,4H5.2C4.5,4,4,4.5,4,5.2v12.9c0,0.6,0.5,1.2,1.2,1.2h13.7
	c0.6,0,1.2-0.5,1.2-1.2V5.2C20,4.5,19.5,4,18.8,4L18.8,4z M19.3,18.1c0,0.2-0.2,0.4-0.4,0.4H5.2c-0.2,0-0.4-0.2-0.4-0.4V9.5h14.6
	L19.3,18.1z M19.3,8.7H4.7V5.2c0-0.2,0.2-0.4,0.4-0.4h13.7c0.2,0,0.4,0.2,0.4,0.4v3.5H19.3z M15.6,5.6c-0.6,0-1.1,0.5-1.1,1.1
	s0.5,1.1,1.1,1.1s1.1-0.5,1.1-1.1S16.2,5.6,15.6,5.6z M15.6,7.1c-0.2,0-0.4-0.2-0.4-0.4c0-0.2,0.2-0.4,0.4-0.4S16,6.5,16,6.7
	S15.8,7.1,15.6,7.1z M10.5,16.9c0.1,0.1,0.2,0.1,0.3,0.1s0.2,0,0.2-0.1l5.2-5c0.1-0.1,0.1-0.4,0-0.5s-0.4-0.1-0.5,0l-4.9,4.8
	l-2.4-2.5c-0.1-0.1-0.4-0.1-0.5,0s-0.1,0.4,0,0.5L10.5,16.9z"/>
</svg>
