<?xml version="1.0" encoding="utf-8"?>
<!-- Generator: Adobe Illustrator 22.1.0, SVG Export Plug-In . SVG Version: 6.00 Build 0)  -->
<svg version="1.1" id="Layer_1" xmlns="http://www.w3.org/2000/svg" xmlns:xlink="http://www.w3.org/1999/xlink" x="0px" y="0px"
	 viewBox="0 0 24 24" style="enable-background:new 0 0 24 24;" xml:space="preserve">
<style type="text/css">
	.st0{fill:#FFFFFF;stroke:#000000;}
</style>
<title>icon/disabled seat</title>
<desc>Created with Sketch.</desc>
<path id="Rectangle-4" class="st0" d="M12,4.5L12,4.5c4.1,0,7.5,3.4,7.5,7.5l0,0c0,4.1-3.4,7.5-7.5,7.5l0,0c-4.1,0-7.5-3.4-7.5-7.5
	l0,0C4.5,7.9,7.9,4.5,12,4.5z"/>
<g id="Mask">
	<path id="path-1_1_" d="M15,12.7v-0.9c-0.7,0-1.3-0.3-1.7-0.8l-0.6-0.6c-0.1-0.1-0.2-0.1-0.3-0.2l0,0l0,0c-0.2-0.1-0.3-0.1-0.5-0.1
		c-0.4,0-0.8,0.4-0.8,0.9v2.5c0,0.5,0.4,0.9,0.9,0.9h2.1v2.1H15v-2.3c0-0.5-0.4-0.9-0.9-0.9h-1.3v-1.5C13.4,12.3,14.2,12.7,15,12.7
		L15,12.7z M12.4,14.8c-0.2,0.5-0.7,0.8-1.2,0.8c-0.7,0-1.3-0.6-1.3-1.3c0-0.6,0.4-1,0.9-1.2v-0.9c-1,0.2-1.7,1.1-1.7,2.1
		c0,1.2,1,2.1,2.1,2.1c1,0,1.9-0.7,2.1-1.7L12.4,14.8L12.4,14.8z M12,9.7c0.5,0,0.9-0.4,0.9-0.8C12.9,8.4,12.5,8,12,8
		s-0.9,0.4-0.9,0.9C11.1,9.3,11.5,9.7,12,9.7z"/>
</g>
</svg>
