<?xml version="1.0" encoding="utf-8"?>
<!-- Generator: Adobe Illustrator 22.1.0, SVG Export Plug-In . SVG Version: 6.00 Build 0)  -->
<svg version="1.1" id="Layer_1" xmlns="http://www.w3.org/2000/svg" xmlns:xlink="http://www.w3.org/1999/xlink" x="0px" y="0px"
	 viewBox="0 0 24 24" style="enable-background:new 0 0 24 24;" xml:space="preserve">
<title>icon/disabled</title>
<desc>Created with Sketch.</desc>
<g id="Mask">
	<path id="path-1_1_" d="M18,12.9v-1.7c-1.3,0-2.6-0.6-3.5-1.6l-1.1-1.2c-0.1-0.2-0.3-0.3-0.5-0.4l0,0l0,0c-0.3-0.2-0.6-0.3-1-0.2
		c-0.9,0.1-1.6,0.9-1.6,1.8v5c0,0.9,0.8,1.7,1.7,1.7h4.3v4.2H18v-4.7c0-0.9-0.8-1.7-1.7-1.7h-2.6v-2.9C14.8,12.1,16.5,12.8,18,12.9
		L18,12.9z M12.7,17.1c-0.4,1-1.3,1.7-2.4,1.7c-1.4,0-2.6-1.1-2.6-2.5c0-1.1,0.7-2,1.7-2.4v-1.8C7.5,12.5,6,14.2,6,16.3
		c0,2.3,1.9,4.2,4.3,4.2c2.1,0,3.8-1.5,4.2-3.4H12.7L12.7,17.1z M12,6.9c0.9,0,1.7-0.8,1.7-1.7S12.9,3.5,12,3.5s-1.7,0.8-1.7,1.7
		S11.1,6.9,12,6.9z"/>
</g>
</svg>
