<svg xmlns="http://www.w3.org/2000/svg" width="16" height="23" viewBox="0 0 16 23">
  <path fill="#D22231" fill-rule="evenodd" d="M8.03409,0.714075 C8.318265,0.7150525 8.601465,0.7306775 8.88369,0.7619275 C8.9168925,0.765835 8.950095,0.76974 8.984275,0.7736475 C9.09365,0.7873175 8.9168925,0.76388 9.0262675,0.779505 C9.0926725,0.7892725 9.1581025,0.8000125 9.22451,0.810755 C9.3661125,0.83517 9.50771,0.86349 9.64736,0.895715 C9.91396,0.9572375 10.17666,1.0343875 10.43446,1.12423 C10.5575075,1.1672 10.6786,1.214075 10.79871,1.2629025 C10.8973425,1.3029425 10.7381625,1.236535 10.836795,1.2785275 C10.8660925,1.2912225 10.896365,1.304895 10.9256625,1.31759 C10.9949975,1.3478625 11.0623825,1.38009 11.13074,1.4132925 C11.3729275,1.5295025 11.60729,1.6603625 11.83484,1.8019675 C11.944215,1.86935 12.05066,1.94064 12.15614,2.0138825 C12.208875,2.050015 12.2606325,2.0881 12.31239,2.1261875 C12.33778,2.1447425 12.3641475,2.1642725 12.3895375,2.183805 C12.4207875,2.20822 12.4237175,2.209195 12.3963725,2.1886875 C12.412975,2.201385 12.429575,2.215055 12.4471525,2.22775 C12.8661025,2.55685 13.2469525,2.9338 13.5868025,3.342975 C13.688365,3.4660225 13.7118025,3.4972725 13.78895,3.601775 C13.8719575,3.7131025 13.9500825,3.82736 14.026255,3.943575 C14.173715,4.1672075 14.307505,4.399625 14.42958,4.6379 C14.488175,4.753135 14.5438375,4.869345 14.5965725,4.9875 C14.610245,5.0167975 14.62294,5.04707 14.635635,5.0763675 C14.678605,5.1740225 14.610245,5.01582 14.65126,5.1144525 C14.6805575,5.184765 14.7079,5.2550775 14.7342675,5.3263675 C14.8309475,5.5812425 14.9120025,5.8419925 14.9803625,6.1066425 C15.0496975,6.3742175 15.1014575,6.6466925 15.1405175,6.9210925 C15.1307525,6.8488275 15.1454025,6.9582025 15.1454025,6.963085 C15.1493075,6.9962875 15.153215,7.0294925 15.15712,7.06367 C15.1649325,7.1310525 15.1707925,7.198435 15.1766525,7.2658175 C15.1893475,7.4132775 15.1961825,7.5607425 15.1991125,7.7081925 C15.203995,7.92206 15.198135,8.1349425 15.18251,8.3478425 C15.1746975,8.4454975 15.1649325,8.543155 15.1532125,8.6408175 C15.1502825,8.6652325 15.147355,8.6906225 15.144425,8.7150375 C15.1336825,8.8019525 15.1551675,8.63789 15.1434475,8.724805 C15.135635,8.784375 15.12587,8.84297 15.1161025,8.90254 C14.9627825,9.85469 14.6639525,10.782415 14.3202025,11.68079 C14.274305,11.79993 14.22743,11.91907 14.1795775,12.03724 C14.155165,12.09681 14.13075,12.1573575 14.106335,12.2169275 C14.09364,12.2472 14.0819225,12.277475 14.069225,12.30677 C14.0604375,12.3272775 14.052625,12.34681 14.043835,12.3673175 C14.0575075,12.3360675 14.055555,12.3389975 14.03993,12.376105 C13.9315325,12.63098 13.8192275,12.883905 13.70398,13.134905 C13.4657,13.653455 13.21278,14.16518 12.949105,14.67103 C11.909055,16.66908 10.707905,18.58803 9.395355,20.41703 C9.11898,20.801805 8.836755,21.182655 8.547705,21.5576557 C8.598485,21.492225 8.54282,21.5644915 8.5350075,21.5742572 C8.5184075,21.5957415 8.501805,21.6172272 8.4852025,21.6377347 C8.452975,21.6797272 8.4197725,21.7217197 8.38657,21.7627347 C8.317235,21.8506247 8.2478975,21.9385147 8.177585,22.0254347 C8.09295,22.1302531 8.04385485,22.1885066 8.03029956,22.2001953 L8.03029956,22.2001953 C7.75784956,21.8788953 7.74106,21.8428095 7.483235,21.5098097 C7.534015,21.5752397 7.4773775,21.5019972 7.469565,21.4922325 C7.4529625,21.4707475 7.435385,21.4482875 7.418785,21.4268025 C7.384605,21.38188 7.350425,21.337935 7.3172225,21.2930125 C7.2420275,21.19438 7.1678075,21.09477 7.09359,20.9951625 C6.9451525,20.7959425 6.798665,20.5947625 6.653165,20.3926125 C6.015465,19.5039375 5.409015,18.5928125 4.831865,17.6651125 C4.217615,16.6787875 3.63754,15.6709625 3.10139,14.6406125 C2.837715,14.1347625 2.58674,13.6230375 2.348465,13.1044875 C2.23323,12.8535125 2.1219025,12.6005875 2.01449,12.3456875 C2.041835,12.41014 1.99984,12.3105325 1.998865,12.306625 C1.98617,12.2763525 1.973475,12.247055 1.961755,12.2167825 C1.93734,12.1572125 1.9129275,12.0976425 1.8885125,12.037095 C1.836755,11.909165 1.7859725,11.78027 1.737145,11.651345 C1.393395,10.753895 1.10237,9.828095 0.94907,8.876845 C0.9412575,8.826065 0.933445,8.7752825 0.9266075,8.7245025 C0.9139125,8.6375875 0.936375,8.80165 0.9256325,8.714735 C0.9227025,8.6903225 0.9197725,8.66493 0.9168425,8.640515 C0.9041475,8.535045 0.8943825,8.4295775 0.88657,8.324115 C0.86997,8.1073175 0.86704,7.890515 0.8719225,7.673715 C0.8748525,7.5379725 0.88364,7.401265 0.8934075,7.265515 C0.89829,7.1981325 0.905125,7.13075 0.9129375,7.0633675 C0.916845,7.030165 0.92075,6.9969625 0.9246575,6.9627825 C0.927585,6.9403225 0.930515,6.91786 0.933445,6.8963775 C0.9285625,6.9315325 0.92954,6.928605 0.9353975,6.88759 C0.97446,6.61414 1.030125,6.342665 1.09946,6.074115 C1.16782,5.81044 1.2518025,5.550665 1.3484825,5.29579 C1.4061,5.1444225 1.421725,5.1073125 1.475435,4.988165 C1.532075,4.860235 1.5936,4.734265 1.6580525,4.61024 C1.7801225,4.37196 1.9168525,4.14149 2.0643025,3.917865 C2.225435,3.6727475 2.3426275,3.517465 2.5066775,3.31924 C2.8465275,2.90909 3.2322525,2.53799 3.6512025,2.20889 C3.73421,2.14346 3.599445,2.2479525 3.68343,2.184475 C3.70882,2.164945 3.73421,2.14639 3.7605775,2.1268575 C3.812335,2.0887725 3.8640925,2.0516625 3.9168275,2.0145525 C4.0301075,1.934475 4.1472975,1.85928 4.2654525,1.78506 C4.4929925,1.6434575 4.7293275,1.515535 4.9715025,1.39931 C5.0300975,1.37099 5.08869,1.3446225 5.1472825,1.31728 C5.17658,1.3036075 5.2068525,1.2909125 5.23615,1.2782175 C5.3338075,1.2352475 5.1756025,1.3036075 5.274235,1.2625925 C5.3943525,1.2127875 5.5164225,1.16689 5.638485,1.12392 C5.896285,1.0331 6.15996,0.9569275 6.425585,0.895405 C6.55449,0.8651325 6.68536,0.838765 6.815235,0.8163025 C6.880665,0.804585 6.94707,0.7938425 7.0125,0.784075 C7.017385,0.7830975 7.1267575,0.76845 7.0544925,0.778215 C7.099415,0.7723575 7.14336,0.7674725 7.1882825,0.761615 C7.4705075,0.7293875 7.7537075,0.71474 8.0378825,0.7137625 M8.0339825,0.0301625 C5.783275,0.0351575 3.6045,1.017575 2.123,2.714775 C0.715775,4.3261 -0.023475,6.531275 0.23335,8.666025 C0.348585,9.620125 0.611275,10.54785 0.934525,11.451275 C1.311475,12.503025 1.7734,13.5255 2.274375,14.523525 C3.292925,16.5538 4.489225,18.499025 5.792875,20.358525 C6.423725,21.256975 7.082925,22.1388 7.7919,22.9767747 C7.90518,23.1105647 8.162025,23.1105647 8.2753,22.9767747 C9.57315,21.44065 10.72355,19.772775 11.78805,18.068525 C13.0029,16.123225 14.1113,14.092025 14.9453,11.952275 C15.29685,11.049925 15.59765,10.1183 15.762675,9.162275 C15.9365025,8.158375 15.913065,7.1486 15.69334,6.152525 C15.21679,3.98945 13.77634,2.095025 11.84759,1.017775 C10.686465,0.369325 9.363215,0.0334 8.03409,0.030475 M8.0343025,12.4306625 C9.1964025,12.42578 10.3106775,11.9814375 11.1623025,11.1923875 C12.0070275,10.4082125 12.5060525,9.3125125 12.5929775,8.1688875 C12.681845,7.0038375 12.2843775,5.8524875 11.5549025,4.9501375 C10.8537275,4.0839375 9.8039275,3.4970125 8.7014025,3.3427125 C7.5432025,3.1806025 6.3518025,3.4491575 5.3956525,4.1307875 C4.4698775,4.7909375 3.8048275,5.7831375 3.5665525,6.8972875 C3.321435,8.0427875 3.5294425,9.2605625 4.1437025,10.2585375 C4.7384275,11.2253375 5.6935025,11.9411625 6.7824525,12.2565875 C7.1867525,12.373775 7.6135025,12.4284625 8.0344025,12.430415 M8.0344025,11.746815 C7.724675,11.7460225 7.51765,11.7235625 7.253,11.668875 L7.253,11.668875 C6.98835,11.6141875 6.996175,11.6083275 6.8702,11.569265 C6.8077,11.5497325 6.7461775,11.529225 6.6846525,11.506765 C6.65438,11.4960225 6.62313,11.4843025 6.592855,11.472585 C6.5821125,11.4686775 6.46395,11.418875 6.524495,11.44524 C6.277425,11.338795 6.04207,11.20696 5.820395,11.05559 C5.68856,10.965745 5.65731,10.940355 5.557695,10.8573475 C5.45125,10.76848 5.350665,10.6737525 5.252995,10.5751225 C5.043035,10.3622325 4.940495,10.2294225 4.786195,9.9960225 C4.7158825,9.8886 4.6504525,9.7772725 4.589905,9.6630225 C4.5596325,9.6063825 4.53131,9.5477875 4.50299,9.489195 C4.4893175,9.4598975 4.475645,9.4306 4.46295,9.401305 C4.447325,9.364195 4.4453725,9.361265 4.459045,9.3934925 C4.450255,9.37396 4.4424425,9.3534525 4.43463,9.332945 C4.33209,9.079045 4.2578725,8.81342 4.20709,8.54487 C4.20123,8.5116675 4.19537,8.47944 4.1904875,8.4462375 C4.1895125,8.441355 4.1738875,8.33198 4.1836525,8.404245 C4.1748625,8.3368625 4.1680275,8.270455 4.163145,8.2030725 C4.15045,8.0556125 4.14752,7.9061975 4.15045,7.7577725 C4.15338,7.62203 4.16412,7.4862975 4.1797475,7.3515225 C4.1924425,7.2421475 4.16998,7.4179275 4.185605,7.30953 C4.19049,7.2763275 4.1963475,7.243125 4.2022075,7.2108975 C4.21588,7.134725 4.231505,7.0585525 4.2490825,6.9833575 C4.27838,6.8554275 4.3154875,6.7284825 4.35748,6.6044575 C4.3779875,6.542935 4.4004475,6.48141 4.423885,6.4208625 C4.435605,6.39059 4.4483,6.360315 4.4600175,6.3300425 C4.4346275,6.39059 4.4854075,6.2743775 4.49029,6.2636375 C4.6016175,6.0194975 4.7393125,5.7880625 4.895565,5.5693125 C4.91412,5.542945 4.93365,5.517555 4.952205,5.492165 C5.0156825,5.40818 4.912165,5.542945 4.977595,5.4599375 C5.017635,5.4101325 5.05865,5.361305 5.1006425,5.3124775 C5.1914625,5.207985 5.28912,5.1093525 5.3896925,5.0146275 C5.4365675,4.9706825 5.48442,4.92869 5.5332475,4.8866975 C5.5576625,4.86619 5.582075,4.8456825 5.6074675,4.825175 C5.6113725,4.822245 5.693405,4.756815 5.6387175,4.7988075 C5.74907,4.7138475 5.8643025,4.6357225 5.9814925,4.5615025 C6.0908675,4.4931425 6.2041475,4.4306425 6.3193925,4.373025 C6.474665,4.2949 6.50787,4.2812275 6.6543425,4.22654 C7.2051175,4.01951 7.6650925,3.955065 8.2412675,3.980445 C8.3096275,3.983375 8.37701,3.989235 8.4443925,3.9950925 C8.477595,3.9980225 8.511775,4.00193 8.5449775,4.005835 C8.6543525,4.01853 8.47857,3.99607 8.58697,4.011695 C8.7295475,4.03318 8.87017,4.062475 9.00982,4.09861 C9.286195,4.1689225 9.51372,4.25779 9.721745,4.358385 C9.962955,4.4755725 10.19147,4.61816 10.405345,4.77831 C10.48933,4.8417875 10.354565,4.73827 10.4375725,4.8037 C10.4629625,4.82323 10.4873775,4.84374 10.5117925,4.8642475 C10.56062,4.9052625 10.6084725,4.9482325 10.6563225,4.9912 C10.7588625,5.08495 10.8555425,5.18456 10.9483225,5.2871 C11.1201975,5.478505 11.2354225,5.637675 11.3858225,5.88965 C11.4522275,6.0009775 11.5118,6.115235 11.5664875,6.23145 C11.58016,6.2607475 11.5938325,6.290045 11.6065275,6.31934 C11.6504725,6.416995 11.582115,6.2587925 11.62313,6.357425 C11.6524275,6.4277375 11.6778175,6.4990275 11.7032075,6.5712925 C11.7461775,6.695315 11.78231,6.8222675 11.814535,6.9492175 C11.83016,7.01367 11.8438325,7.0781225 11.8565275,7.1435525 C11.8633625,7.17578 11.868245,7.2089825 11.874105,7.242185 C11.8760575,7.2539025 11.89559,7.3847625 11.8868,7.31738 C11.92391,7.599605 11.92977,7.884755 11.9102375,8.167955 C11.9004725,8.3163925 11.8916825,8.374985 11.874105,8.478505 C11.85262,8.609365 11.823325,8.739255 11.789145,8.86718 C11.7559425,8.9941325 11.714925,9.118155 11.670005,9.241205 C11.6592625,9.2714775 11.6465675,9.3017525 11.6348475,9.332025 C11.632895,9.33593 11.59188,9.434565 11.6192225,9.37011 C11.5938325,9.42968 11.5655125,9.488275 11.5381675,9.5468675 C11.430745,9.7685475 11.3008625,9.9794925 11.1563425,10.1796675 C11.1377875,10.206035 11.1182575,10.231425 11.098725,10.256815 C11.1407175,10.2021275 11.0752875,10.28416 11.0723575,10.288065 C11.0323175,10.33787 10.9903275,10.38572 10.9473575,10.43455 C10.8623975,10.5302525 10.7725525,10.6210725 10.6788075,10.708975 C10.5938475,10.7890525 10.5040025,10.865225 10.4122075,10.9384675 C10.4659175,10.8954975 10.38291,10.9599525 10.37998,10.9628825 C10.35459,10.9824125 10.3282225,11.000965 10.301855,11.01952 C10.24912,11.0566325 10.196385,11.091785 10.142675,11.126945 C10.0342775,11.1972575 9.9219725,11.260735 9.8087,11.320305 C9.7510825,11.3505775 9.693465,11.3779225 9.6348725,11.4052625 C9.605575,11.418935 9.57628,11.4316325 9.546005,11.445305 C9.6104575,11.416985 9.511825,11.458975 9.50792,11.46093 C9.2745225,11.55468 9.03137,11.6249925 8.78527,11.675775 C8.71984,11.689445 8.65441,11.7001875 8.588005,11.71093 C8.4796075,11.72753 8.6553875,11.7031175 8.5460125,11.7167875 C8.51281,11.720695 8.47863,11.7246 8.4454275,11.72753 C8.3077325,11.7412025 8.1710025,11.7470625 8.0343025,11.7470625"/>
</svg>
