<?xml version="1.0" encoding="utf-8"?>
<!-- Generator: Adobe Illustrator 22.1.0, SVG Export Plug-In . SVG Version: 6.00 Build 0)  -->
<svg version="1.1" id="Layer_1" xmlns="http://www.w3.org/2000/svg" xmlns:xlink="http://www.w3.org/1999/xlink" x="0px" y="0px"
	 viewBox="0 0 24 24" style="enable-background:new 0 0 24 24;" xml:space="preserve">
<title>icon/padlock</title>
<desc>Created with Sketch.</desc>
<g id="Mask">
	<path id="path-1_1_" d="M16.9,9.2h-0.8V7.5c0-2.2-1.8-4-4.1-4s-4.1,1.8-4.1,4v1.6H7.1c-0.9,0.1-1.6,0.8-1.6,1.7v8.1
		c0,0.9,0.7,1.6,1.6,1.6h9.8c0.9,0,1.6-0.7,1.6-1.6v-8.1C18.5,9.9,17.8,9.2,16.9,9.2L16.9,9.2z M12,16.5c-0.9,0-1.6-0.7-1.6-1.6
		s0.7-1.6,1.6-1.6s1.6,0.7,1.6,1.6C13.6,15.7,12.9,16.5,12,16.5L12,16.5z M14.5,9.2h-5V7.5C9.5,6.1,10.6,5,12,5s2.5,1.2,2.5,2.5V9.2
		L14.5,9.2z"/>
</g>
</svg>
