<?xml version="1.0" encoding="utf-8"?>
<!-- Generator: Adobe Illustrator 22.1.0, SVG Export Plug-In . SVG Version: 6.00 Build 0)  -->
<svg version="1.1" id="Layer_1" xmlns="http://www.w3.org/2000/svg" xmlns:xlink="http://www.w3.org/1999/xlink" x="0px" y="0px"
	 viewBox="0 0 24 24" style="enable-background:new 0 0 24 24;" xml:space="preserve">
<style type="text/css">
	.st0{fill:#4A4A4A;}
</style>
<title>icon/seat</title>
<desc>Created with Sketch.</desc>
<path id="Fill-1" class="st0" d="M18,10.1h-1V6.4C17,5.1,15.9,4,14.6,4H9.4C8.1,4,7,5.1,7,6.4v3.7H6c-0.8,0-1.4,0.6-1.4,1.4v8
	C4.6,19.8,4.8,20,5,20H19c0.2,0,0.4-0.2,0.4-0.4v-8C19.5,10.8,18.8,10.1,18,10.1z M18.7,19.2H5.4v-2.1h13.3V19.2L18.7,19.2z
	 M5.4,11.6C5.4,11.3,5.7,11,6,11h1v5.3H5.4V11.6z M9.4,4.8h5.1c0.9,0,1.6,0.7,1.6,1.6V14H7.9V6.4C7.9,5.5,8.6,4.8,9.4,4.8z
	 M16.2,16.3H7.9v-1.4h8.4V16.3L16.2,16.3z M17,16.3V11h1c0.3,0,0.6,0.3,0.6,0.6v4.7H17L17,16.3z"/>
</svg>
