<?xml version="1.0" encoding="utf-8"?>
<!-- Generator: Adobe Illustrator 22.1.0, SVG Export Plug-In . SVG Version: 6.00 Build 0)  -->
<svg version="1.1" id="Layer_1" xmlns="http://www.w3.org/2000/svg" xmlns:xlink="http://www.w3.org/1999/xlink" x="0px" y="0px"
	 viewBox="0 0 24 24" style="enable-background:new 0 0 24 24;" xml:space="preserve">
<style type="text/css">
	.st0{fill:#FFFFFF;stroke:#000000;}
</style>
<title>icon/special seat</title>
<desc>Created with Sketch.</desc>
<path id="Rectangle-4" class="st0" d="M12,4.5L12,4.5c4.1,0,7.5,3.4,7.5,7.5l0,0c0,4.1-3.4,7.5-7.5,7.5l0,0c-4.1,0-7.5-3.4-7.5-7.5
	l0,0C4.5,7.9,7.9,4.5,12,4.5z"/>
<path id="Rectangle-4_1_" class="st0" d="M12,8.5L12,8.5c1.9,0,3.5,1.6,3.5,3.5l0,0c0,1.9-1.6,3.5-3.5,3.5l0,0
	c-1.9,0-3.5-1.6-3.5-3.5l0,0C8.5,10.1,10.1,8.5,12,8.5z"/>
</svg>
