<?xml version="1.0" encoding="utf-8"?>
<!-- Generator: Adobe Illustrator 22.1.0, SVG Export Plug-In . SVG Version: 6.00 Build 0)  -->
<svg version="1.1" id="Layer_1" xmlns="http://www.w3.org/2000/svg" xmlns:xlink="http://www.w3.org/1999/xlink" x="0px" y="0px"
	 viewBox="0 0 24 24" style="enable-background:new 0 0 24 24;" xml:space="preserve">
<title>icon/ticket outline</title>
<desc>Created with Sketch.</desc>
<path id="Shape" d="M16.1,5.9l0.2-0.2l-2.1-2.1L3.5,14.4l2.1,2.1l0.2-0.2c0.5-0.5,1.2-0.5,1.8,0.1c0.5,0.5,0.6,1.3,0.1,1.8l-0.2,0.2
	l2.1,2.1l10.6-11l-2.1-2.1L18,7.7c-0.5,0.5-1.2,0.5-1.8-0.1C15.7,7.1,15.6,6.4,16.1,5.9L16.1,5.9z M16.7,12.2l-7.2,7.2l-1.2-1.2
	c0.5-0.7,0.4-1.7-0.3-2.4c-0.7-0.7-1.7-0.8-2.4-0.3l-1.2-1.2l7.2-7.2L16.7,12.2z M18.2,8.4l1.2,1.2l-2.3,2.3l-5-5l2.3-2.3l1.2,1.2
	c-0.5,0.7-0.4,1.7,0.3,2.4C16.4,8.8,17.4,8.9,18.2,8.4z"/>
</svg>
