<svg xmlns="http://www.w3.org/2000/svg" width="100" height="100" viewBox="0 0 100 100">
  <g fill-rule="evenodd">
    <path d="M49.168 54.254C46.8633 54.254 45 52.3907 45 50.086L45 27.168C45 24.8633 46.8633 23 49.168 23 51.4727 23 53.336 24.8633 53.336 27.168L53.33209 50.086C53.33209 52.3907 51.46879 54.254 49.16799 54.254L49.168 54.254zM53.8242 68.910175C53.8242 75.457075 44 75.457075 44 68.910175 44 62.363275 53.8242 62.363275 53.8242 68.910175"/>
    <path d="M50,100 C22.43,100 0,77.57 0,50 C0,22.43 22.43,0 50,0 C77.57,0 100,22.43 100,50 C100,77.574 77.57,100 50,100 Z M50,8.336 C27.027,8.336 8.332001,27.027 8.332001,50.004 C8.332001,72.977 27.023,91.671997 50,91.671997 C72.973,91.671997 91.668,72.981 91.668,50.004 C91.668,27.027 72.973,8.336 50,8.336 Z"/>
  </g>
</svg>
